<svg xmlns="http://www.w3.org/2000/svg" version="1.1" xmlns:xlink="http://www.w3.org/1999/xlink" xmlns:svgjs="http://svgjs.dev/svgjs" width="2000" height="1247" viewBox="0 0 2000 1247"><g transform="matrix(1,0,0,1,-1.2121212121212466,0.504858299595071)"><svg viewBox="0 0 396 247" data-background-color="#ffffff" preserveAspectRatio="xMidYMid meet" height="1247" width="2000" xmlns="http://www.w3.org/2000/svg" xmlns:xlink="http://www.w3.org/1999/xlink"><g id="tight-bounds" transform="matrix(1,0,0,1,0.2400000000000091,-0.09999999999999432)"><svg viewBox="0 0 395.52 247.2" height="247.2" width="395.52"><g><svg></svg></g><g><svg viewBox="0 0 395.52 247.2" height="247.2" width="395.52"><g transform="matrix(1,0,0,1,75.54432000000001,49.58648865471798)"><svg viewBox="0 0 244.43135999999996 148.02702269056402" height="148.02702269056402" width="244.43135999999996"><g><svg viewBox="0 0 244.43135999999996 148.02702269056402" height="148.02702269056402" width="244.43135999999996"><g><svg viewBox="0 0 244.43136 148.02702269056405" height="148.02702269056402" width="244.43135999999996"><g><svg viewBox="0 0 244.43136 148.02702269056405" height="148.02702269056405" width="244.43136"><g id="textblocktransform"><svg viewBox="0 0 244.43136 148.02702269056405" height="148.02702269056405" width="244.43136" id="textblock"><g><svg viewBox="0 0 244.43136 148.02702269056405" height="148.02702269056405" width="244.43136"><g transform="matrix(1,0,0,1,0,0)"><svg width="244.43136" viewBox="4.539999961853027 -29.540000915527344 49.581329345703125 30.030000686645508" height="148.02702269056405" data-palette-color="#ffffff"><path d="M24.41-4.59L25.63-1.29Q22.24 0.49 16.33 0.49L16.33 0.49Q12.84 0.49 11.21-0.05L11.21-0.05Q7.03-1.46 5.74-4.86L5.74-4.86Q4.83-7.23 4.69-9.96 4.54-12.7 4.54-14.58 4.54-16.46 4.64-18.25 4.74-20.04 5.11-21.7 5.49-23.36 6.27-24.79 7.06-26.22 8.4-27.29L8.4-27.29Q11.3-29.54 16.75-29.54L16.75-29.54Q20.75-29.54 24.12-28.37L24.12-28.37Q25.02-28.08 25.49-27.81L25.49-27.81 24.27-24.19Q19.58-26 16.59-26 13.6-26 12.19-25.32 10.79-24.63 10.01-23.24L10.01-23.24Q8.69-20.85 8.69-14.45L8.69-14.45Q8.69-11.89 8.86-9.78 9.03-7.67 9.72-6.15L9.72-6.15Q11.16-3.03 15.66-3.03 20.17-3.03 24.41-4.59L24.41-4.59ZM32.93-2.39L34.69-5.76Q39.72-2.95 44.8-2.95L44.8-2.95Q49.02-2.95 49.75-5.96L49.75-5.96Q50-6.98 50-8.46 50-9.94 49.66-10.75 49.31-11.57 48.51-11.98 47.7-12.38 46.37-12.57 45.04-12.77 42.99-13.12 40.94-13.48 39.23-13.92 37.52-14.36 36.33-15.19L36.33-15.19Q33.79-16.97 33.88-21.19L33.88-21.19 33.88-21.8Q33.88-26.25 36.81-28.13L36.81-28.13Q39.65-29.98 46.16-29.39L46.16-29.39Q50.61-28.98 53.24-27.86L53.24-27.86 52.1-24.17Q49.17-25.42 45.07-25.98L45.07-25.98Q43.8-26.15 42.69-26.15 41.57-26.15 40.67-25.98 39.77-25.81 39.16-25.34L39.16-25.34Q37.99-24.39 37.94-21.8L37.94-21.8Q37.86-18.75 39.65-17.92L39.65-17.92Q41.35-17.11 43.7-16.81 46.04-16.5 47.53-16.27 49.02-16.04 50.24-15.65 51.46-15.26 52.34-14.4L52.34-14.4Q54.17-12.67 54.12-8.37L54.12-8.37Q54-0.88 47.87 0.17L47.87 0.17Q46.02 0.49 44.16 0.49 42.31 0.49 40.76 0.26 39.21 0.02 37.79-0.39L37.79-0.39Q35.1-1.15 32.93-2.39L32.93-2.39Z" opacity="1" transform="matrix(1,0,0,1,0,0)" fill="#ffffff" class="undefined-text-0" data-fill-palette-color="primary" id="text-0"></path></svg></g></svg></g></svg></g></svg></g></svg></g></svg></g></svg></g><path d="M256.139 43.586L256.139 0.741 10.421 0.741 10.421 246.459 256.139 246.459 256.139 203.614 242.79 203.614 242.79 233.11 23.77 233.11 23.77 14.09 242.79 14.09 242.79 43.586Z" fill="#ffffff" stroke="transparent" data-fill-palette-color="primary"></path></svg></g><defs></defs></svg><rect width="395.52" height="247.2" fill="none" stroke="none" visibility="hidden"></rect></g></svg></g></svg>